<?xml version="1.0" ?><!DOCTYPE svg  PUBLIC '-//W3C//DTD SVG 1.1//EN'  'http://www.w3.org/Graphics/SVG/1.1/DTD/svg11.dtd'><svg enable-background="new -798.5 -532.5 512 512" height="512px" id="Layer_1" version="1.1" viewBox="-798.5 -532.5 512 512" width="512px" xml:space="preserve" xmlns="http://www.w3.org/2000/svg" xmlns:xlink="http://www.w3.org/1999/xlink"><g><g><circle cx="-547.729" cy="-288.309" fill="#F7B0D7" r="176.364"/></g><g><circle cx="-406.305" cy="-118.203" fill="#F7B0D7" r="23.023"/></g><g><circle cx="-379.268" cy="-160.105" fill="#F7B0D7" r="11.511"/></g><g><circle cx="-678.694" cy="-118.203" fill="#F7B0D7" r="23.023"/></g><g><circle cx="-705.731" cy="-160.105" fill="#F7B0D7" r="11.511"/></g></g><g><g><path d="M-392.578-374.82c-3.112-29.374-34.934-57.228-68.757-57.228c-12.343,0-23.824,3.197-33.438,8.677    c-9.617-5.48-21.097-8.677-33.44-8.677c-12.342,0-23.823,3.197-33.439,8.677c-9.616-5.48-29.886-6.283-42.082-4.54    c-62.746,8.963-125.491,82.739-111.213,132.382c16.53,57.473,72.89-1.379,98.814,10.419c0,0,3.382,4.75,4.509,21.814    c2.148,32.519-4.509,74.982-4.509,74.982s46.215,14.479,83.411,14.479s87.919-14.479,87.919-14.479s-5.12-52.25-3.945-73.948    c1.315-24.305,3.945-21.598,3.945-21.598C-419.015-290.155-387.318-325.177-392.578-374.82z" fill="#FFFFFF"/></g><g><path d="M-448.749-262.26c1.315-24.305,3.945-21.598,3.945-21.598c25.788-6.296,57.485-41.318,52.225-90.961    c-1.59-15.008-10.685-29.609-23.701-40.311c4.795,19.907,10.244,50.892,2.714,66.954c-11.649,24.85-28.734,38.052-36.5,36.499    c0,0-31.063,24.851-43.488-2.33c0,0-45.042,24.851-67.563-3.106c0,0-9.319,25.628-41.936,1.554c0,0-3.883,13.978-34.17,6.212    c0,0-20.191,17.862-32.616,10.873c0,0-15.532,28.733-27.957,25.627c-0.892-0.223-1.682-0.31-2.397-0.301    c23.796,13.754,63.498-21.317,84.059-11.96c0,0,1.536,2.165,2.883,8.795c18.985,1.677,56.563,4.349,88.634,2.689    c45.042-2.33,73.776-9.319,73.776-9.319l-0.777,9.319c0,0,5.436,62.127-34.946,69.893c-38.72,7.446-70.318,14.156-126.251-12.687    c-1.439,16.116-3.319,28.106-3.319,28.106s46.215,14.479,83.411,14.479s87.919-14.479,87.919-14.479    S-449.923-240.562-448.749-262.26z" fill="#D8D8D8"/></g><g><path d="M-532.722-168.833c-37.53,0-82.989-14.107-84.906-14.708c-2.363-0.74-3.828-3.099-3.445-5.545    c0.066-0.419,6.545-42.306,4.459-73.879c-0.7-10.604-2.297-15.974-3.146-18.168c-1.349-0.394-2.862-0.586-4.581-0.586    c-7.564,0-17.273,3.722-27.553,7.663c-11.742,4.502-23.884,9.157-35.156,9.157c-16.119,0-27.122-9.84-32.703-29.248    c-5.854-20.355-0.205-45.276,15.908-70.171c23.543-36.375,62.562-63.28,99.403-68.542c4.001-0.572,8.68-0.874,13.529-0.874    c5.821,0,19.56,0.491,29.158,4.728c10.155-5.268,21.692-8.042,33.541-8.042c11.81,0,23.309,2.754,33.44,7.989    c10.129-5.234,21.628-7.989,33.438-7.989c17.109,0,35.015,6.846,49.125,18.782c14.002,11.844,22.97,27.488,24.605,42.919    c3.181,30.018-6.554,51.935-15.28,65.035c-10.227,15.352-24.686,26.76-38.986,30.849c-0.495,2.026-1.306,6.794-1.883,17.473    c-1.141,21.075,3.878,72.671,3.929,73.19c0.236,2.404-1.281,4.633-3.604,5.296C-445.53-182.905-495.257-168.833-532.722-168.833z     M-610.56-191.878c11.997,3.44,48.152,13.044,77.837,13.044c30.127,0,69.938-9.862,82.545-13.2    c-1.195-12.964-4.563-52.052-3.564-70.497c0.479-8.847,1.197-15.306,2.135-19.199c0.429-1.779,1.73-7.183,6.517-7.219    c23.356-6.347,52.445-39.036,47.539-85.345c-2.925-27.61-33.328-52.755-63.785-52.755c-11.05,0-21.756,2.773-30.962,8.021    c-1.535,0.875-3.417,0.875-4.952,0c-9.208-5.248-19.916-8.021-30.964-8.021c-11.049,0-21.756,2.774-30.963,8.021    c-1.535,0.874-3.417,0.874-4.952,0c-5.095-2.904-15.358-4.708-26.784-4.708c-4.384,0-8.573,0.268-12.115,0.773    c-33.58,4.796-70.721,30.547-92.423,64.076c-14.518,22.431-19.736,44.44-14.693,61.974c5.611,19.51,15.289,22.012,23.093,22.012    c9.421,0,20.684-4.318,31.577-8.494c11.168-4.282,21.717-8.326,31.132-8.326c3.818,0,7.276,0.693,10.279,2.059    c0.801,0.364,1.491,0.934,2.002,1.651c0.702,0.986,4.263,6.796,5.425,24.385C-604.854-236.66-608.924-203.621-610.56-191.878z" fill="#58595B"/></g><g><path d="M-526.29-269.079c-48.61,0-86.784-9.282-89.17-9.875c-2.68-0.667-4.312-3.378-3.646-6.058    c0.665-2.68,3.38-4.315,6.057-3.647c0.861,0.213,87.069,21.137,164.297,0.029c2.668-0.729,5.414,0.842,6.142,3.505    c0.728,2.664-0.841,5.414-3.505,6.142C-473.294-271.555-501.185-269.079-526.29-269.079z" fill="#58595B"/></g><g><g><g><path d="M-581.058-272.945c-0.691,0-1.393-0.144-2.063-0.448c-14.834-6.729-25.795-27.091-32.579-60.521      c-4.882-24.059-5.771-45.941-5.806-46.861c-0.106-2.759,2.044-5.082,4.803-5.188c2.772-0.112,5.083,2.043,5.189,4.803      c0.922,23.757,8.563,87.792,32.523,98.662c2.515,1.141,3.629,4.104,2.488,6.619      C-577.339-274.036-579.156-272.945-581.058-272.945z" fill="#58595B"/></g><g><path d="M-546.96-274.21c-1.671,0-3.304-0.837-4.251-2.361c-23.806-38.295-17.376-105.228-17.091-108.059      c0.277-2.748,2.724-4.75,5.475-4.473c2.747,0.276,4.75,2.727,4.475,5.475c-0.066,0.66-6.365,66.388,15.634,101.777      c1.458,2.345,0.738,5.428-1.607,6.886C-545.146-274.453-546.059-274.21-546.96-274.21z" fill="#58595B"/></g></g><g><g><path d="M-475.37-272.945c-1.902,0-3.719-1.091-4.556-2.936c-1.141-2.515-0.027-5.478,2.488-6.619      c23.981-10.879,31.607-74.908,32.522-98.661c0.106-2.76,2.449-4.917,5.188-4.804c2.759,0.106,4.91,2.429,4.804,5.188      c-0.035,0.92-0.923,22.803-5.806,46.861c-6.784,33.43-17.744,53.792-32.578,60.521      C-473.977-273.089-474.679-272.945-475.37-272.945z" fill="#58595B"/></g><g><path d="M-509.469-274.21c-0.901,0-1.813-0.243-2.635-0.754c-2.345-1.458-3.064-4.541-1.607-6.886      c22.027-35.433,15.701-101.117,15.635-101.776c-0.277-2.748,1.726-5.199,4.473-5.476c2.757-0.282,5.199,1.726,5.476,4.473      c0.286,2.831,6.715,69.763-17.091,108.059C-506.164-275.048-507.798-274.21-509.469-274.21z" fill="#58595B"/></g></g></g><g><path d="M-618.766-281.565c-1.071,0-2.149-0.342-3.061-1.049c-55.274-42.859-46.53-82.082-46.131-83.73    c0.649-2.685,3.351-4.333,6.036-3.683c2.673,0.647,4.319,3.331,3.69,6.003c-0.041,0.188-1.866,8.792,2.305,21.921    c3.922,12.345,14.084,31.315,40.227,51.586c2.182,1.692,2.58,4.833,0.887,7.015C-615.797-282.23-617.274-281.565-618.766-281.565z    " fill="#58595B"/></g><g><path d="M-647.314-278.805c-0.42,0-0.846-0.054-1.271-0.165c-33.302-8.73-46.923-33.839-47.487-34.904    c-1.292-2.44-0.361-5.466,2.08-6.758c2.438-1.291,5.457-0.363,6.752,2.068c0.167,0.308,12.348,22.36,41.191,29.921    c2.671,0.7,4.269,3.433,3.568,6.104C-643.07-280.292-645.096-278.805-647.314-278.805z" fill="#58595B"/></g></g></svg>